<?xml version="1.0" standalone="no"?>
<!DOCTYPE svg PUBLIC "-//W3C//DTD SVG 20010904//EN"
 "http://www.w3.org/TR/2001/REC-SVG-20010904/DTD/svg10.dtd">
<svg version="1.0" xmlns="http://www.w3.org/2000/svg"
 width="512.000000pt" height="512.000000pt" viewBox="0 0 512.000000 512.000000"
 preserveAspectRatio="xMidYMid meet">

<g transform="translate(0.000000,512.000000) scale(0.100000,-0.100000)"
fill="#000000" stroke="none">
<path d="M2442 5090 c-24 -11 -89 -48 -145 -83 -367 -229 -782 -387 -1202
-457 -114 -19 -218 -29 -508 -49 -148 -10 -210 -34 -272 -103 -57 -62 -75
-113 -86 -246 -30 -343 -5 -788 67 -1192 160 -899 561 -1677 1165 -2265 229
-223 484 -411 764 -564 196 -107 245 -125 337 -126 77 0 77 0 240 82 353 178
623 375 903 657 277 279 539 646 723 1013 316 627 492 1462 468 2215 -3 114
-11 229 -16 257 -20 109 -86 198 -178 241 -39 19 -74 24 -207 31 -293 16 -478
41 -711 98 -334 82 -683 229 -974 412 -63 39 -132 78 -153 85 -58 21 -163 18
-215 -6z m233 -370 c533 -326 1127 -508 1745 -536 148 -7 149 -7 155 -32 10
-41 7 -548 -5 -687 -71 -862 -357 -1612 -853 -2238 -104 -132 -363 -391 -496
-496 -214 -170 -596 -401 -661 -401 -25 0 -168 71 -302 151 -412 244 -756 573
-1037 989 -431 638 -665 1403 -688 2250 -3 124 -3 277 1 341 l8 116 145 7
c629 30 1209 206 1743 530 69 42 126 76 128 76 2 0 55 -31 117 -70z"/>
<path d="M3423 3358 c-18 -9 -1091 -1105 -1157 -1181 l-18 -22 -272 277 c-149
152 -281 282 -293 287 -35 18 -105 13 -141 -9 -72 -44 -95 -147 -49 -222 29
-48 652 -685 688 -704 36 -18 92 -18 128 0 26 14 227 217 1001 1014 162 166
305 321 318 344 12 23 22 55 22 72 -1 48 -35 113 -72 136 -36 22 -117 26 -155
8z"/>
</g>
</svg>
