<?xml version="1.0" standalone="no"?>
<!DOCTYPE svg PUBLIC "-//W3C//DTD SVG 20010904//EN"
 "http://www.w3.org/TR/2001/REC-SVG-20010904/DTD/svg10.dtd">
<svg version="1.0" xmlns="http://www.w3.org/2000/svg"
 width="512.000000pt" height="512.000000pt" viewBox="0 0 512.000000 512.000000"
 preserveAspectRatio="xMidYMid meet">

<g transform="translate(0.000000,512.000000) scale(0.100000,-0.100000)"
fill="#000000" stroke="none">
<path d="M1304 5106 c-152 -37 -264 -173 -272 -331 -8 -153 69 -285 207 -353
50 -24 67 -27 156 -27 88 0 106 3 155 27 75 37 137 100 174 178 28 58 31 75
31 155 0 82 -3 97 -33 157 -51 104 -139 173 -250 197 -65 14 -102 13 -168 -3z"/>
<path d="M1203 4324 c-91 -49 -171 -113 -285 -232 -91 -95 -183 -222 -222
-307 -27 -60 -32 -142 -11 -206 36 -110 178 -370 232 -423 23 -23 77 -46 111
-46 9 0 12 -148 12 -706 l0 -706 22 -40 c59 -104 210 -114 279 -17 l24 34 3
618 c2 536 4 617 17 617 13 0 15 -78 15 -602 0 -580 1 -603 20 -642 68 -141
275 -114 310 40 5 21 10 349 10 728 0 628 1 688 16 682 27 -10 91 13 121 44
36 39 163 260 204 358 27 62 33 91 34 147 0 62 -5 80 -38 147 -102 207 -385
483 -550 538 -39 12 -39 12 -81 -29 -23 -23 -47 -41 -53 -41 -6 0 -27 18 -46
40 -19 23 -43 40 -55 40 -11 0 -51 -16 -89 -36z m237 -359 c22 -148 40 -278
40 -288 0 -14 -75 -127 -85 -127 -1 0 -22 26 -46 57 l-43 58 28 190 c44 306
59 400 63 390 1 -6 21 -131 43 -280z m-420 -312 c0 -128 -4 -131 -44 -42 l-24
56 29 52 c16 28 32 51 34 51 3 0 5 -53 5 -117z m809 12 c0 -11 -13 -45 -29
-75 l-29 -55 0 120 -1 120 30 -45 c16 -25 30 -54 29 -65z"/>
<path d="M2747 4196 c-213 -79 -276 -341 -120 -501 84 -87 229 -115 340 -66
100 44 183 168 183 275 0 109 -65 218 -160 270 -65 35 -180 46 -243 22z"/>
<path d="M2684 3549 c-159 -84 -364 -306 -425 -460 -39 -99 -12 -192 117 -410
64 -108 98 -139 153 -139 l21 0 0 -590 c0 -514 2 -595 15 -621 37 -71 145 -93
206 -42 60 50 59 45 59 588 0 323 3 495 10 495 7 0 10 -175 10 -505 0 -558 -1
-546 63 -585 40 -25 109 -26 148 -3 16 10 38 36 49 58 19 40 20 64 20 623 l0
582 26 0 c73 0 125 62 232 280 52 105 57 121 57 180 -1 51 -7 77 -29 120 -84
164 -260 348 -406 424 -38 20 -74 36 -82 36 -8 0 -29 -16 -48 -35 l-34 -35
-36 35 c-20 19 -43 35 -52 35 -8 0 -42 -14 -74 -31z m200 -314 l35 -230 -36
-52 c-20 -29 -37 -53 -38 -53 -2 0 -19 24 -39 53 l-36 52 35 230 c19 127 35
235 36 240 2 24 11 -24 43 -240z m-354 -247 l-1 -93 -24 45 c-13 25 -24 51
-25 59 0 13 38 81 46 81 2 0 4 -42 4 -92z m676 30 c3 -10 -6 -42 -19 -70 l-25
-53 -1 95 -1 95 20 -25 c11 -14 22 -33 26 -42z"/>
<path d="M3993 3226 c-91 -29 -150 -102 -160 -198 -10 -95 52 -196 143 -234
46 -19 131 -17 180 5 22 10 56 37 75 60 64 74 76 163 33 249 -30 61 -74 98
-140 118 -56 17 -76 17 -131 0z"/>
<path d="M3945 2743 c-113 -60 -251 -204 -310 -320 -47 -95 -34 -155 72 -336
48 -82 73 -107 110 -107 l23 0 0 -448 c0 -494 -2 -480 64 -507 60 -25 127 11
140 76 3 18 7 194 8 393 l2 361 6 -386 c4 -322 7 -389 20 -405 34 -43 81 -58
125 -40 67 28 65 13 65 508 l0 448 28 0 c44 0 67 24 128 131 93 165 104 221
58 313 -63 126 -234 295 -331 327 -32 10 -37 9 -64 -17 l-29 -28 -28 27 c-32
31 -45 32 -87 10z m146 -244 l25 -170 -23 -35 c-13 -19 -28 -34 -33 -34 -13 0
-50 56 -50 77 -1 33 44 333 50 333 3 0 17 -77 31 -171z m-271 -181 l-1 -63
-18 35 c-17 31 -17 38 -5 62 8 16 17 28 19 28 3 0 5 -28 5 -62z m504 34 c12
-24 12 -31 -5 -62 l-18 -35 -1 63 c0 34 2 62 5 62 2 0 11 -12 19 -28z"/>
<path d="M1437 1400 c-14 -11 -33 -40 -43 -65 l-17 -45 -61 0 c-33 0 -71 -3
-83 -6 -19 -5 -26 0 -42 37 -39 92 -94 105 -199 49 -43 -22 -64 -41 -73 -63
-13 -30 -11 -37 24 -127 4 -10 -15 -38 -52 -78 l-57 -63 -37 16 c-82 34 -133
9 -167 -83 -25 -65 -28 -115 -9 -139 8 -9 38 -27 67 -39 l52 -24 0 -83 0 -84
-41 -18 c-48 -22 -79 -58 -79 -92 0 -36 54 -148 81 -167 31 -21 74 -20 126 4
l42 19 20 -27 c10 -15 37 -40 58 -56 l40 -30 -18 -55 c-24 -80 -12 -107 66
-145 72 -35 134 -39 164 -12 11 10 28 38 37 62 15 41 19 44 53 44 20 0 59 3
86 6 50 6 50 6 63 -29 32 -89 87 -107 186 -61 94 43 114 88 77 170 l-19 42 58
62 58 63 43 -17 c86 -35 134 -3 169 111 19 60 19 67 4 98 -12 25 -29 39 -70
55 l-54 22 0 84 0 84 50 25 c81 41 88 76 38 181 -26 54 -39 69 -67 81 -32 14
-39 13 -88 -7 l-54 -22 -57 53 c-31 30 -58 57 -60 61 -2 4 4 30 12 59 14 47
14 55 0 85 -12 26 -29 38 -80 58 -77 31 -113 33 -147 6z m25 -362 c149 -69
229 -214 207 -378 -29 -205 -234 -346 -434 -297 -122 30 -212 110 -256 227
-30 79 -24 204 14 277 50 96 119 156 220 189 65 21 181 13 249 -18z"/>
<path d="M2917 1032 c-8 -9 -20 -29 -26 -45 -9 -23 -16 -27 -48 -27 -21 0 -48
-3 -59 -6 -18 -5 -26 2 -45 35 -27 49 -55 59 -111 40 -84 -27 -108 -72 -74
-138 14 -27 14 -29 -28 -70 l-43 -43 -42 13 c-37 11 -44 10 -68 -7 -15 -12
-34 -42 -44 -72 -23 -66 -12 -95 42 -116 37 -15 39 -18 39 -60 0 -24 3 -51 6
-60 4 -10 -7 -21 -35 -35 -47 -25 -59 -55 -42 -111 25 -83 65 -105 135 -76 33
14 34 14 75 -28 l42 -43 -13 -46 c-11 -42 -10 -48 7 -67 24 -26 80 -51 117
-52 34 -1 57 17 75 59 12 31 17 33 63 34 28 1 55 2 60 3 6 1 21 -17 33 -39 27
-49 61 -55 130 -26 62 27 77 57 55 115 l-16 44 42 41 43 42 46 -13 c43 -11 48
-10 70 10 25 24 47 82 47 124 0 28 -22 52 -63 67 -23 9 -27 16 -27 48 0 21 -3
48 -6 60 -5 18 1 25 34 42 60 31 67 63 27 141 -30 58 -57 70 -115 47 l-38 -15
-42 43 -42 42 13 42 c11 37 10 44 -7 68 -36 48 -136 69 -167 35z m46 -270 c95
-51 150 -168 129 -271 -23 -110 -96 -186 -203 -211 -170 -41 -339 113 -315
287 25 184 225 284 389 195z"/>
<path d="M3820 808 c-39 -20 -45 -27 -44 -53 0 -16 4 -37 7 -45 4 -9 -5 -28
-24 -48 -26 -29 -33 -32 -57 -24 -38 13 -68 -1 -81 -39 -19 -56 -14 -78 24
-100 31 -19 35 -25 35 -64 0 -35 -4 -45 -20 -50 -11 -4 -27 -17 -36 -30 -14
-21 -13 -27 6 -69 24 -50 46 -62 83 -45 22 10 30 8 61 -16 20 -15 36 -28 36
-29 0 -1 -4 -16 -10 -34 -8 -29 -6 -37 14 -57 13 -13 41 -27 62 -31 32 -6 40
-3 56 16 10 12 18 28 18 36 0 10 14 14 48 14 42 0 49 -3 64 -30 20 -34 51 -39
98 -15 41 21 52 46 39 85 -10 28 -9 34 16 60 25 26 33 29 70 23 38 -5 45 -2
59 19 38 59 30 109 -21 129 -19 7 -23 16 -23 54 0 39 4 47 25 57 34 15 41 51
20 98 -20 45 -45 57 -84 40 -25 -10 -31 -8 -60 19 -28 26 -31 34 -25 68 8 49
-17 73 -81 80 -44 5 -45 5 -60 -31 -14 -34 -18 -36 -60 -36 -39 0 -46 4 -59
29 -12 23 -34 41 -50 41 -1 0 -22 -10 -46 -22z m279 -201 c110 -73 106 -240
-7 -318 -29 -19 -48 -24 -102 -24 -56 0 -73 4 -108 28 -135 89 -101 302 54
342 59 15 112 6 163 -28z"/>
</g>
</svg>
