<?xml version="1.0" standalone="no"?>
<!DOCTYPE svg PUBLIC "-//W3C//DTD SVG 20010904//EN"
 "http://www.w3.org/TR/2001/REC-SVG-20010904/DTD/svg10.dtd">
<svg version="1.0" xmlns="http://www.w3.org/2000/svg"
 width="512.000000pt" height="512.000000pt" viewBox="0 0 512.000000 512.000000"
 preserveAspectRatio="xMidYMid meet">

<g transform="translate(0.000000,512.000000) scale(0.100000,-0.100000)"
fill="#000000" stroke="none">
<path d="M190 5111 c-87 -27 -163 -104 -180 -184 -8 -37 -10 -408 -8 -1287 3
-1173 4 -1237 21 -1272 25 -49 76 -100 123 -124 34 -17 66 -19 247 -22 l207
-3 0 -1110 0 -1109 1960 0 1960 0 0 598 0 597 -85 -3 -85 -3 0 -510 0 -509
-1790 0 -1790 0 0 1025 0 1025 703 0 c781 0 761 -2 831 66 20 19 46 54 59 77
l22 42 3 1103 2 1102 470 0 470 0 0 -515 0 -515 510 0 510 0 0 -595 0 -595 85
0 85 0 0 657 0 658 -537 537 -538 538 -526 0 -526 0 -5 78 c-3 51 -12 91 -26
118 -29 57 -102 119 -157 133 -51 13 -1973 14 -2015 2z m2001 -190 l29 -29 0
-1222 0 -1222 -29 -29 -29 -29 -967 0 -967 0 -29 29 -29 29 0 1222 0 1222 29
29 29 29 967 0 967 0 29 -29z m2029 -1164 c0 -4 -161 -6 -357 -5 l-358 3 -3
365 -2 365 360 -360 c198 -198 360 -363 360 -368z"/>
<path d="M260 4565 l0 -295 935 0 935 0 0 295 0 295 -935 0 -935 0 0 -295z
m1700 0 l0 -125 -765 0 -765 0 0 125 0 125 765 0 765 0 0 -125z"/>
<path d="M435 4160 c-22 -11 -51 -36 -65 -57 -22 -33 -25 -48 -28 -151 -5
-143 1 -173 41 -219 47 -54 79 -63 217 -63 137 0 180 14 222 72 22 31 23 42
23 185 0 171 -6 187 -81 230 -35 20 -53 23 -164 23 -105 0 -131 -3 -165 -20z
m245 -235 l0 -85 -85 0 -85 0 0 85 0 85 85 0 85 0 0 -85z"/>
<path d="M1025 4157 c-22 -13 -49 -40 -62 -62 -20 -36 -23 -54 -23 -166 0
-112 2 -131 23 -169 38 -72 84 -90 232 -90 148 0 194 18 232 90 20 38 23 57
23 165 0 108 -3 127 -23 166 -39 74 -77 89 -232 89 -116 0 -134 -3 -170 -23z
m255 -232 l0 -85 -85 0 -85 0 0 85 0 85 85 0 85 0 0 -85z"/>
<path d="M1635 4164 c-84 -43 -98 -82 -93 -259 3 -117 5 -133 26 -163 42 -58
85 -72 221 -72 126 0 161 8 200 43 46 42 61 93 61 207 0 58 -5 121 -10 140
-11 41 -61 94 -103 109 -46 18 -266 14 -302 -5z m245 -239 l0 -85 -85 0 -85 0
0 85 0 85 85 0 85 0 0 -85z"/>
<path d="M450 3573 c-37 -14 -74 -49 -91 -87 -27 -59 -27 -253 0 -311 38 -83
89 -105 243 -105 137 0 184 18 223 84 23 40 25 52 25 178 0 124 -2 138 -23
169 -12 18 -38 44 -56 56 -31 21 -44 23 -170 22 -75 0 -143 -3 -151 -6z m230
-248 l0 -85 -85 0 -85 0 0 85 0 85 85 0 85 0 0 -85z"/>
<path d="M1034 3566 c-17 -8 -44 -31 -60 -52 -28 -36 -29 -41 -32 -173 -3
-155 5 -182 71 -235 37 -30 43 -31 154 -35 135 -4 189 8 231 53 45 46 52 74
52 207 0 136 -14 179 -72 221 -30 21 -44 23 -173 25 -103 2 -148 -1 -171 -11z
m246 -241 l0 -85 -85 0 -85 0 0 85 0 85 85 0 85 0 0 -85z"/>
<path d="M1619 3557 c-18 -12 -44 -38 -56 -56 -21 -31 -23 -45 -23 -168 0
-157 10 -190 73 -231 37 -25 51 -27 156 -30 127 -4 174 5 220 44 50 41 63 94
59 231 -3 110 -5 123 -30 160 -41 63 -74 73 -231 73 -123 0 -137 -2 -168 -23z
m261 -232 l0 -85 -85 0 -85 0 0 85 0 85 85 0 85 0 0 -85z"/>
<path d="M457 2976 c-91 -34 -116 -88 -117 -246 0 -101 3 -122 23 -160 39 -77
91 -99 237 -99 128 -1 181 20 228 89 20 30 22 44 22 168 0 153 -11 187 -77
232 -32 22 -47 24 -157 27 -86 2 -132 -1 -159 -11z m223 -243 l0 -88 -85 3
-85 3 0 78 c0 43 3 81 7 84 3 4 42 7 85 7 l78 0 0 -87z"/>
<path d="M1045 2971 c-87 -40 -105 -82 -105 -241 0 -125 8 -160 43 -198 46
-50 73 -57 212 -57 147 0 174 9 222 72 26 34 28 43 31 156 4 145 -1 177 -35
218 -46 54 -93 69 -218 69 -86 0 -119 -4 -150 -19z m235 -236 l0 -85 -85 0
-85 0 0 85 0 85 85 0 85 0 0 -85z"/>
<path d="M1670 2983 c-56 -20 -83 -40 -105 -78 -23 -39 -25 -51 -25 -177 0
-124 2 -138 23 -169 50 -74 125 -97 284 -86 97 7 139 27 175 85 20 32 23 53
27 155 2 93 0 128 -14 162 -19 52 -61 90 -113 105 -38 10 -225 13 -252 3z
m208 -250 l3 -82 -86 -3 -85 -3 0 88 0 88 83 -3 82 -3 3 -82z"/>
<path d="M2730 3245 l0 -85 85 0 85 0 0 85 0 85 -85 0 -85 0 0 -85z"/>
<path d="M3070 3245 l0 -85 515 0 516 0 -3 83 -3 82 -512 3 -513 2 0 -85z"/>
<path d="M2730 2905 l0 -85 85 0 85 0 0 85 0 85 -85 0 -85 0 0 -85z"/>
<path d="M3077 2983 c-4 -3 -7 -42 -7 -85 l0 -78 515 0 516 0 -3 83 -3 82
-506 3 c-278 1 -509 -1 -512 -5z"/>
<path d="M2734 2637 c-3 -8 -4 -47 -2 -88 l3 -74 80 0 80 0 0 85 0 85 -78 3
c-59 2 -79 0 -83 -11z"/>
<path d="M3074 2637 c-3 -8 -4 -47 -2 -88 l3 -74 510 0 510 0 0 85 0 85 -508
3 c-419 2 -508 0 -513 -11z"/>
<path d="M4770 2454 c-38 -14 -156 -127 -805 -775 l-760 -759 -107 -233 c-65
-140 -108 -247 -108 -266 0 -18 8 -39 20 -51 41 -41 60 -38 253 50 100 46 211
98 247 116 58 29 145 112 822 791 755 756 757 758 773 816 35 122 -17 241
-130 299 -52 27 -146 33 -205 12z m146 -178 c44 -37 39 -86 -14 -139 l-42 -42
-60 60 -61 60 45 43 c53 50 90 55 132 18z m-233 -244 l57 -58 -30 -29 -30 -29
-60 59 -60 59 27 28 c15 15 29 28 33 28 3 0 31 -26 63 -58z m-180 -180 l57
-57 -548 -547 -547 -547 -99 -46 c-54 -25 -102 -44 -106 -43 -4 2 14 50 40
107 l49 104 543 544 c298 299 545 543 548 543 3 0 31 -26 63 -58z"/>
<path d="M2730 2215 l0 -85 85 0 85 0 0 85 0 85 -85 0 -85 0 0 -85z"/>
<path d="M3072 2218 l3 -83 510 0 510 0 3 83 3 82 -516 0 -516 0 3 -82z"/>
<path d="M1835 2040 c-186 -30 -361 -124 -497 -268 -303 -322 -303 -832 0
-1154 118 -125 253 -207 412 -249 117 -32 309 -32 425 -1 591 158 832 861 462
1347 -109 143 -287 261 -462 305 -93 24 -254 33 -340 20z m246 -174 c298 -53
525 -295 558 -594 22 -206 -46 -407 -188 -551 -359 -368 -967 -226 -1137 264
-25 71 -28 94 -28 210 0 120 2 137 30 216 85 238 275 403 524 454 85 17 148
17 241 1z"/>
<path d="M1880 1660 c0 -41 -3 -50 -17 -50 -24 0 -114 -42 -153 -72 -54 -39
-85 -104 -85 -173 1 -140 119 -235 316 -254 103 -10 120 -15 162 -43 74 -52
-11 -127 -143 -127 -60 -1 -123 23 -154 58 -17 18 -30 21 -103 21 l-85 0 7
-32 c18 -88 94 -162 198 -195 l57 -18 0 -47 0 -48 85 0 85 0 0 50 c0 28 4 50
10 50 28 0 122 45 159 76 62 54 84 103 79 180 -9 140 -122 225 -327 244 -92 9
-120 18 -158 53 -30 27 -29 40 7 71 76 63 227 61 292 -5 28 -27 35 -29 109
-29 75 0 79 1 79 23 -1 40 -36 102 -80 140 -37 32 -131 77 -160 77 -5 0 -10
21 -12 48 l-3 47 -82 3 -83 3 0 -51z"/>
</g>
</svg>
