<?xml version="1.0" standalone="no"?>
<!DOCTYPE svg PUBLIC "-//W3C//DTD SVG 20010904//EN"
 "http://www.w3.org/TR/2001/REC-SVG-20010904/DTD/svg10.dtd">
<svg version="1.0" xmlns="http://www.w3.org/2000/svg"
 width="840.000000pt" height="765.000000pt" viewBox="0 0 840.000000 765.000000"
 preserveAspectRatio="xMidYMid meet">

<g transform="translate(0.000000,765.000000) scale(0.100000,-0.100000)"
fill="#000000" stroke="none">
<path d="M2370 6876 c0 -289 -3 -377 -12 -383 -7 -4 -116 -54 -243 -110 l-230
-103 -268 268 -267 267 -367 -368 -368 -367 262 -262 262 -263 -92 -235 -92
-235 -378 -3 -377 -2 0 -530 0 -530 374 0 374 0 20 -47 c11 -27 55 -133 97
-237 l77 -189 -264 -264 -263 -263 365 -365 c201 -201 368 -364 372 -363 4 2
76 71 160 153 84 83 203 199 264 258 l110 107 240 -99 239 -99 3 -366 2 -366
228 2 227 3 3 170 c2 94 0 522 -3 952 l-7 782 -97 37 c-182 70 -247 109 -352
214 -82 82 -102 108 -141 190 -133 272 -96 552 104 789 151 179 330 261 567
261 216 0 396 -88 548 -269 95 -112 141 -199 178 -333 l16 -58 965 0 964 0 0
230 0 230 -377 2 -378 3 -92 225 c-50 124 -92 230 -92 236 -1 5 113 126 252
269 138 142 253 263 255 269 1 6 -160 173 -358 371 l-360 360 -97 -95 c-54
-52 -175 -171 -269 -263 l-171 -169 -241 104 -242 103 0 378 0 377 -515 0
-515 0 0 -374z"/>
<path d="M2970 4350 l0 -130 2615 0 2615 0 0 130 0 130 -2615 0 -2615 0 0
-130z"/>
<path d="M2970 2200 l0 -1850 2615 0 2615 0 0 1850 0 1850 -2615 0 -2615 0 0
-1850z m4560 1400 l0 -180 -1950 0 -1950 0 0 180 0 180 1950 0 1950 0 0 -180z
m-2599 -499 c27 -26 49 -55 49 -63 0 -39 -95 -144 -466 -518 l-402 -404 -109
99 c-208 191 -363 338 -363 344 0 11 136 173 152 182 19 11 85 -36 233 -166
l98 -86 291 289 c288 285 351 343 397 361 48 19 71 12 120 -38z m2599 -666 l0
-215 -1265 0 -1265 0 0 215 0 215 1265 0 1265 0 0 -215z m-2825 -1095 c-309
-310 -539 -527 -575 -544 -15 -7 -31 0 -72 31 -52 40 -238 202 -372 325 l-68
63 92 98 c50 53 97 97 103 97 7 0 74 -62 149 -137 l138 -138 358 358 357 357
100 -100 100 -100 -310 -310z m2825 -255 l0 -235 -1265 0 -1265 0 0 235 0 235
1265 0 1265 0 0 -235z"/>
</g>
</svg>
