<?xml version="1.0" standalone="no"?>
<!DOCTYPE svg PUBLIC "-//W3C//DTD SVG 20010904//EN"
 "http://www.w3.org/TR/2001/REC-SVG-20010904/DTD/svg10.dtd">
<svg version="1.0" xmlns="http://www.w3.org/2000/svg"
 width="512.000000pt" height="512.000000pt" viewBox="0 0 512.000000 512.000000"
 preserveAspectRatio="xMidYMid meet">

<g transform="translate(0.000000,512.000000) scale(0.100000,-0.100000)"
fill="#000000" stroke="none">
<path d="M2478 4610 c-20 -11 -47 -34 -60 -52 l-23 -33 -3 -1323 c-3 -1473 -7
-1364 65 -1419 74 -57 182 -32 230 52 l23 40 0 1311 0 1311 -23 44 c-16 31
-36 51 -67 67 -54 27 -93 27 -142 2z"/>
<path d="M1630 4277 c-217 -109 -392 -239 -571 -424 -532 -553 -713 -1350
-473 -2083 210 -641 719 -1141 1361 -1335 985 -299 2023 147 2477 1066 241
486 281 1058 111 1574 -46 137 -165 383 -240 495 -213 316 -513 575 -842 727
-65 30 -84 35 -130 31 -96 -8 -147 -69 -141 -168 6 -80 26 -104 137 -160 403
-202 711 -535 875 -944 152 -377 165 -809 36 -1199 -42 -128 -157 -354 -237
-467 -87 -123 -292 -327 -413 -412 -224 -158 -487 -264 -765 -309 -103 -17
-406 -17 -510 -1 -110 18 -290 66 -383 103 -119 47 -277 133 -382 207 -122 86
-326 290 -412 412 -249 352 -363 788 -317 1208 65 593 413 1105 934 1373 66
34 131 71 143 83 80 72 67 190 -27 253 -57 38 -109 32 -231 -30z"/>
</g>
</svg>
