<?xml version="1.0" standalone="no"?>
<!DOCTYPE svg PUBLIC "-//W3C//DTD SVG 20010904//EN"
 "http://www.w3.org/TR/2001/REC-SVG-20010904/DTD/svg10.dtd">
<svg version="1.0" xmlns="http://www.w3.org/2000/svg"
 width="200.000000pt" height="200.000000pt" viewBox="0 0 200.000000 200.000000"
 preserveAspectRatio="xMidYMid meet">

<g transform="translate(0.000000,200.000000) scale(0.100000,-0.100000)"
fill="#000000" stroke="none">
<path d="M494 1960 c-49 -19 -54 -42 -54 -227 l0 -173 30 0 30 0 0 163 c0 113
4 167 12 175 17 17 989 17 1006 0 8 -8 12 -61 12 -171 l0 -158 -82 70 c-77 66
-83 69 -100 54 -10 -9 -18 -21 -17 -27 0 -11 209 -193 227 -198 5 -2 62 41
126 96 115 97 116 99 99 120 -10 11 -19 23 -20 25 -1 2 -39 -29 -85 -69 l-83
-72 -5 177 -5 177 -28 24 -28 24 -507 -1 c-279 0 -517 -4 -528 -9z"/>
<path d="M840 1810 c0 -28 3 -30 35 -30 32 0 35 2 35 30 0 28 -3 30 -35 30
-32 0 -35 -2 -35 -30z"/>
<path d="M970 1810 c0 -27 3 -30 30 -30 27 0 30 3 30 30 0 27 -3 30 -30 30
-27 0 -30 -3 -30 -30z"/>
<path d="M1090 1810 c0 -28 3 -30 35 -30 32 0 35 2 35 30 0 28 -3 30 -35 30
-32 0 -35 -2 -35 -30z"/>
<path d="M390 1491 c-88 -29 -164 -93 -202 -170 -20 -40 -23 -65 -26 -183 -4
-163 5 -189 74 -219 24 -11 44 -23 44 -28 0 -4 13 -21 30 -37 17 -17 30 -40
30 -55 0 -25 -4 -26 -101 -44 -156 -29 -201 -69 -207 -185 l-4 -70 442 0 443
0 -5 65 c-6 69 -28 117 -68 147 -14 10 -75 29 -135 41 -84 18 -111 28 -113 40
-5 24 69 105 116 128 65 33 75 63 70 219 -3 122 -6 140 -30 185 -55 104 -150
165 -268 171 -36 2 -76 0 -90 -5z m188 -80 c79 -41 131 -120 139 -212 5 -55 5
-58 -15 -52 -12 3 -24 14 -27 24 -13 39 -55 49 -207 49 -125 0 -147 -3 -175
-20 -18 -11 -33 -24 -33 -30 0 -5 -10 -14 -21 -21 -22 -11 -22 -10 -17 54 9
110 66 183 175 223 47 18 131 11 181 -15z m30 -260 c11 -6 13 -33 10 -114 -3
-105 -3 -106 -38 -142 -78 -80 -206 -60 -251 39 -26 57 -27 200 -1 215 21 13
261 14 280 2z m-358 -122 c0 -45 -2 -50 -15 -39 -18 15 -20 61 -3 78 18 18 18
17 18 -39z m470 1 c0 -9 -7 -25 -15 -36 -13 -17 -14 -15 -14 36 0 51 1 53 14
36 8 -11 15 -27 15 -36z m-190 -255 c0 -5 -14 -24 -32 -42 l-32 -33 -28 27
c-46 44 -38 58 32 58 33 0 60 -4 60 -10z m287 -130 c13 -14 23 -39 23 -56 l0
-29 -372 2 -373 3 2 29 c4 51 40 76 139 97 128 26 131 26 186 -28 l48 -48 51
51 51 51 111 -23 c93 -18 115 -27 134 -49z"/>
<path d="M1480 1396 c-126 -27 -228 -108 -283 -223 -30 -63 -32 -76 -32 -173
0 -97 2 -110 32 -173 117 -247 442 -309 641 -123 99 93 147 234 123 363 -32
174 -165 305 -338 333 -69 12 -73 12 -143 -4z m205 -77 c32 -12 77 -41 108
-69 150 -137 150 -363 0 -500 -75 -69 -144 -93 -248 -88 -135 8 -229 69 -287
186 -59 120 -48 250 32 360 34 48 107 100 164 118 65 20 167 17 231 -7z"/>
<path d="M1530 1246 c0 -26 -5 -36 -20 -41 -10 -3 -31 -20 -45 -36 -60 -72 -4
-199 87 -199 13 0 34 -7 46 -16 34 -24 28 -84 -11 -102 -24 -12 -32 -11 -54 3
-14 9 -28 26 -30 36 -4 13 -14 19 -34 19 -24 0 -29 -4 -29 -24 0 -28 42 -82
70 -91 15 -5 20 -15 20 -41 0 -31 2 -34 30 -34 26 0 30 3 30 29 0 23 8 34 34
50 33 21 66 73 66 105 0 60 -65 126 -122 126 -64 0 -88 74 -37 112 32 24 75
11 89 -27 10 -26 52 -36 65 -15 11 18 -28 82 -62 102 -25 15 -33 27 -33 49 0
26 -4 29 -30 29 -28 0 -30 -3 -30 -34z"/>
<path d="M1310 1000 c0 -28 3 -30 35 -30 32 0 35 2 35 30 0 28 -3 30 -35 30
-32 0 -35 -2 -35 -30z"/>
<path d="M1750 1000 c0 -27 3 -30 30 -30 27 0 30 3 30 30 0 27 -3 30 -30 30
-27 0 -30 -3 -30 -30z"/>
<path d="M1530 322 c0 -148 -3 -211 -12 -220 -17 -17 -989 -17 -1006 0 -12 12
-18 228 -6 228 4 0 36 -26 73 -58 86 -76 89 -78 106 -56 8 11 15 22 15 26 0
10 -219 198 -231 198 -5 0 -61 -44 -124 -97 -103 -89 -112 -100 -101 -117 7
-11 17 -21 22 -23 6 -2 44 26 86 62 42 36 79 65 82 65 3 0 6 -54 6 -119 0
-112 2 -122 24 -148 l24 -28 522 -3 521 -3 30 30 29 29 0 221 0 221 -30 0 -30
0 0 -208z"/>
<path d="M840 190 c0 -28 3 -30 35 -30 32 0 35 2 35 30 0 28 -3 30 -35 30 -32
0 -35 -2 -35 -30z"/>
<path d="M970 190 c0 -27 3 -30 30 -30 27 0 30 3 30 30 0 27 -3 30 -30 30 -27
0 -30 -3 -30 -30z"/>
<path d="M1090 190 c0 -28 3 -30 35 -30 32 0 35 2 35 30 0 28 -3 30 -35 30
-32 0 -35 -2 -35 -30z"/>
</g>
</svg>
